# xmcd CD database file
#
# Track frame offsets:
#	150
#	22085
#	45885
#	87042
#	124575
#	146767
#
# Disc length: 2229 seconds
#
# Revision: 1
# Processed by: cddbd v1.5.1PL0 Copyright (c) Steve Scherf et al.
# Submitted via: CDex 1.51
#
DISCID=4408b306
DTITLE=Gil Melle - Patterns In Jazz
DYEAR=1956
DGENRE=Jazz
TTITLE0=The Set Break
TTITLE1=Weird Valley
TTITLE2=The Arab Barber Blues
TTITLE3=Nice Question
TTITLE4=Moonlight In Vermont
TTITLE5=Long Ago And Far Away
EXTD=YEAR: 1956
EXTT0=
EXTT1=
EXTT2=
EXTT3=
EXTT4=
EXTT5=
PLAYORDER=
